<?xml version="1.0" encoding="UTF-8" standalone="no"?><svg xmlns="http://www.w3.org/2000/svg" xmlns:xlink="http://www.w3.org/1999/xlink" contentStyleType="text/css" height="436px" preserveAspectRatio="none" style="width:560px;height:436px;background:#FFFFFF;" version="1.1" viewBox="0 0 560 436" width="560px" zoomAndPan="magnify"><defs/><g><rect fill="none" height="26.2969" id="_title" style="stroke:none;stroke-width:1.0;" width="530" x="14.5" y="10"/><text fill="#000000" font-family="sans-serif" font-size="14" font-weight="bold" lengthAdjust="spacing" textLength="520" x="19.5" y="27.9951">Диаграмма последовательности: получение суммы двух чисел</text><line style="stroke:#181818;stroke-width:0.5;stroke-dasharray:5.0,5.0;" x1="60" x2="60" y1="118.5938" y2="355.5234"/><line style="stroke:#181818;stroke-width:0.5;stroke-dasharray:5.0,5.0;" x1="286.5" x2="286.5" y1="118.5938" y2="355.5234"/><line style="stroke:#181818;stroke-width:0.5;stroke-dasharray:5.0,5.0;" x1="451.5" x2="451.5" y1="118.5938" y2="355.5234"/><text fill="#000000" font-family="sans-serif" font-size="14" lengthAdjust="spacing" textLength="104" x="5" y="115.292">Пользователь</text><ellipse cx="60" cy="50.7969" fill="#E2E2F0" rx="8" ry="8" style="stroke:#181818;stroke-width:0.5;"/><path d="M60,58.7969 L60,85.7969 M47,66.7969 L73,66.7969 M60,85.7969 L47,100.7969 M60,85.7969 L73,100.7969 " fill="none" style="stroke:#181818;stroke-width:0.5;"/><text fill="#000000" font-family="sans-serif" font-size="14" lengthAdjust="spacing" textLength="104" x="5" y="367.5186">Пользователь</text><ellipse cx="60" cy="379.3203" fill="#E2E2F0" rx="8" ry="8" style="stroke:#181818;stroke-width:0.5;"/><path d="M60,387.3203 L60,414.3203 M47,395.3203 L73,395.3203 M60,414.3203 L47,429.3203 M60,414.3203 L73,429.3203 " fill="none" style="stroke:#181818;stroke-width:0.5;"/><rect fill="#E2E2F0" height="30.2969" rx="2.5" ry="2.5" style="stroke:#181818;stroke-width:0.5;" width="99" x="237.5" y="87.2969"/><text fill="#000000" font-family="sans-serif" font-size="14" lengthAdjust="spacing" textLength="85" x="244.5" y="107.292">Интерфейс</text><rect fill="#E2E2F0" height="30.2969" rx="2.5" ry="2.5" style="stroke:#181818;stroke-width:0.5;" width="99" x="237.5" y="354.5234"/><text fill="#000000" font-family="sans-serif" font-size="14" lengthAdjust="spacing" textLength="85" x="244.5" y="374.5186">Интерфейс</text><rect fill="#E2E2F0" height="30.2969" rx="2.5" ry="2.5" style="stroke:#181818;stroke-width:0.5;" width="77" x="413.5" y="87.2969"/><text fill="#000000" font-family="sans-serif" font-size="14" lengthAdjust="spacing" textLength="63" x="420.5" y="107.292">Frontend</text><rect fill="#E2E2F0" height="30.2969" rx="2.5" ry="2.5" style="stroke:#181818;stroke-width:0.5;" width="77" x="413.5" y="354.5234"/><text fill="#000000" font-family="sans-serif" font-size="14" lengthAdjust="spacing" textLength="63" x="420.5" y="374.5186">Frontend</text><polygon fill="#181818" points="275,145.7266,285,149.7266,275,153.7266,279,149.7266" style="stroke:#181818;stroke-width:1.0;"/><line style="stroke:#181818;stroke-width:1.0;" x1="60" x2="281" y1="149.7266" y2="149.7266"/><text fill="#000000" font-family="sans-serif" font-size="13" lengthAdjust="spacing" textLength="137" x="67" y="144.6606">Ввод первого числа</text><polygon fill="#181818" points="275,174.8594,285,178.8594,275,182.8594,279,178.8594" style="stroke:#181818;stroke-width:1.0;"/><line style="stroke:#181818;stroke-width:1.0;" x1="60" x2="281" y1="178.8594" y2="178.8594"/><text fill="#000000" font-family="sans-serif" font-size="13" lengthAdjust="spacing" textLength="138" x="67" y="173.7935">Ввод второго числа</text><polygon fill="#181818" points="275,203.9922,285,207.9922,275,211.9922,279,207.9922" style="stroke:#181818;stroke-width:1.0;"/><line style="stroke:#181818;stroke-width:1.0;" x1="60" x2="281" y1="207.9922" y2="207.9922"/><text fill="#000000" font-family="sans-serif" font-size="13" lengthAdjust="spacing" textLength="203" x="67" y="202.9263">Нажатие кнопки "Посчитать"</text><polygon fill="#181818" points="440,233.125,450,237.125,440,241.125,444,237.125" style="stroke:#181818;stroke-width:1.0;"/><line style="stroke:#181818;stroke-width:1.0;" x1="287" x2="446" y1="237.125" y2="237.125"/><text fill="#000000" font-family="sans-serif" font-size="13" lengthAdjust="spacing" textLength="122" x="294" y="232.0591">Отправка данных</text><line style="stroke:#181818;stroke-width:1.0;" x1="452" x2="494" y1="266.2578" y2="266.2578"/><line style="stroke:#181818;stroke-width:1.0;" x1="494" x2="494" y1="266.2578" y2="279.2578"/><line style="stroke:#181818;stroke-width:1.0;" x1="453" x2="494" y1="279.2578" y2="279.2578"/><polygon fill="#181818" points="463,275.2578,453,279.2578,463,283.2578,459,279.2578" style="stroke:#181818;stroke-width:1.0;"/><text fill="#000000" font-family="sans-serif" font-size="13" lengthAdjust="spacing" textLength="94" x="459" y="261.1919">Расчёт суммы</text><polygon fill="#181818" points="298,304.3906,288,308.3906,298,312.3906,294,308.3906" style="stroke:#181818;stroke-width:1.0;"/><line style="stroke:#181818;stroke-width:1.0;stroke-dasharray:2.0,2.0;" x1="292" x2="451" y1="308.3906" y2="308.3906"/><text fill="#000000" font-family="sans-serif" font-size="13" lengthAdjust="spacing" textLength="141" x="304" y="303.3247">Возврат результата</text><polygon fill="#181818" points="71,333.5234,61,337.5234,71,341.5234,67,337.5234" style="stroke:#181818;stroke-width:1.0;"/><line style="stroke:#181818;stroke-width:1.0;stroke-dasharray:2.0,2.0;" x1="65" x2="286" y1="337.5234" y2="337.5234"/><text fill="#000000" font-family="sans-serif" font-size="13" lengthAdjust="spacing" textLength="179" x="77" y="332.4575">Отображение результата</text><!--MD5=[0a2886114f861b2fa2cdfe6a99f03d94]
@startuml
title Диаграмма последовательности: получение суммы двух чисел

actor "Пользователь" as User
participant "Интерфейс" as UI
participant "Frontend" as Front

User -> UI: Ввод первого числа
User -> UI: Ввод второго числа
User -> UI: Нажатие кнопки "Посчитать"
UI -> Front: Отправка данных
Front -> Front: Расчёт суммы
Front - -> UI: Возврат результата
UI - -> User: Отображение результата
@enduml

PlantUML version 1.2022.7(Mon Aug 22 17:01:30 UTC 2022)
(GPL source distribution)
Java Runtime: OpenJDK Runtime Environment
JVM: OpenJDK 64-Bit Server VM
Default Encoding: UTF-8
Language: en
Country: null
--></g></svg>